<svg width="79" height="63" viewBox="0 0 79 63" fill="none" xmlns="http://www.w3.org/2000/svg">
<path d="M0 8.88706V0L40.051 10.728V19.615L0 8.88706Z" fill="white"/>
<path d="M68.5137 35.6615V26.5659L79.0004 29.3552V38.4509L68.5137 35.6615Z" fill="white"/>
<path d="M68.5137 53.3045V44.7439L79.0004 47.3691V55.9297L68.5137 53.3045Z" fill="white"/>
<path d="M48.2393 56.9057V48.239L68.5136 53.5546V62.2213L48.2393 56.9057Z" fill="white"/>
<path d="M48.2393 39.1623V30.0623L68.5136 35.6436V44.7437L48.2393 39.1623Z" fill="white"/>
<path d="M48.2393 21.2509V12.5842L68.5136 17.8998V26.5665L48.2393 21.2509Z" fill="white"/>
<path d="M0 43.8504V0L9.00556 2.36231V46.2127L0 43.8504Z" fill="white"/>
<path d="M14.9297 47.8799V4.02954L23.9352 6.39185V50.2423L14.9297 47.8799Z" fill="white"/>
<path d="M31.2832 52.1456V8.29517L40.0518 10.6575V54.5079L31.2832 52.1456Z" fill="white"/>
<path d="M48.2393 56.4087V12.5842L57.3278 14.9013V58.7258L48.2393 56.4087Z" fill="white"/>
</svg>
