<svg width="75" height="59" viewBox="0 0 75 59" fill="none" xmlns="http://www.w3.org/2000/svg">
<path d="M0 8.37388V0L37.7383 10.1085V18.4824L0 8.37388Z" fill="#ED9665"/>
<path d="M64.5571 33.6026V25.0322L74.4383 27.6605V36.2309L64.5571 33.6026Z" fill="#58B7B7"/>
<path d="M64.5571 50.2259V42.1597L74.4383 44.6333V52.6996L64.5571 50.2259Z" fill="#58B7B7"/>
<path d="M45.4536 53.6199V45.4536L64.5572 50.4623V58.6285L45.4536 53.6199Z" fill="#58B7B7"/>
<path d="M45.4536 36.9007V28.3262L64.5572 33.5852V42.1598L45.4536 36.9007Z" fill="#58B7B7"/>
<path d="M45.4536 20.0237V11.8574L64.5572 16.8661V25.0323L45.4536 20.0237Z" fill="#58B7B7"/>
<path d="M0 41.3183V0L8.48553 2.2259V43.5442L0 41.3183Z" fill="#ED9665"/>
<path d="M14.0679 45.1142V3.7959L22.5534 6.0218V47.3401L14.0679 45.1142Z" fill="#ED9665"/>
<path d="M29.4756 49.1342V7.81592L37.7378 10.0418V51.3601L29.4756 49.1342Z" fill="#ED9665"/>
<path d="M45.4536 53.1513V11.8574L54.0173 14.0407V55.3346L45.4536 53.1513Z" fill="#58B7B7"/>
</svg>
